<?xml version="1.0" encoding="UTF-8" standalone="no"?>
<svg
   xmlns:dc="http://purl.org/dc/elements/1.1/"
   xmlns:cc="http://creativecommons.org/ns#"
   xmlns:rdf="http://www.w3.org/1999/02/22-rdf-syntax-ns#"
   xmlns:svg="http://www.w3.org/2000/svg"
   xmlns="http://www.w3.org/2000/svg"
   xmlns:sodipodi="http://sodipodi.sourceforge.net/DTD/sodipodi-0.dtd"
   xmlns:inkscape="http://www.inkscape.org/namespaces/inkscape"
   width="1920"
   height="1920"
   viewBox="0 0 507.99999 508.00001"
   version="1.1"
   id="svg8"
   inkscape:version="1.0.2 (394de47547, 2021-03-26)"
   sodipodi:docname="phone.svg">
  <defs
     id="defs2" />
  <sodipodi:namedview
     id="base"
     pagecolor="#1e1e1e"
     bordercolor="#666666"
     borderopacity="1.0"
     inkscape:pageopacity="0"
     inkscape:pageshadow="2"
     inkscape:zoom="0.24748737"
     inkscape:cx="-118.34519"
     inkscape:cy="1072.5011"
     inkscape:document-units="mm"
     inkscape:current-layer="layer1"
     inkscape:document-rotation="0"
     showgrid="false"
     units="px"
     inkscape:window-width="1848"
     inkscape:window-height="1016"
     inkscape:window-x="72"
     inkscape:window-y="27"
     inkscape:window-maximized="1" />
  <metadata
     id="metadata5">
    <rdf:RDF>
      <cc:Work
         rdf:about="">
        <dc:format>image/svg+xml</dc:format>
        <dc:type
           rdf:resource="http://purl.org/dc/dcmitype/StillImage" />
        <dc:title></dc:title>
      </cc:Work>
    </rdf:RDF>
  </metadata>
  <g
     inkscape:label="Calque 1"
     inkscape:groupmode="layer"
     id="layer1">
    <path
       id="path830"
       style="fill:#f8ffff;fill-opacity:1;stroke-width:0.0870088;stroke-linecap:round;stroke-dasharray:0.0870088, 0.261027"
       d="m 162.52735,60.377377 c -40.22373,10.831208 -64.072148,52.196713 -53.29079,92.433823 2.0652,7.70726 5.33925,15.03837 9.70021,21.72035 l 141.31272,237.60436 0.0102,-0.005 c 16.99763,29.81783 51.9703,44.41661 85.1231,35.53328 40.27208,-10.79105 64.1713,-52.18574 53.38059,-92.4579 -10.79067,-40.27252 -52.18564,-64.17222 -92.45812,-53.38143 -4.09359,1.09709 -8.08753,2.53694 -11.93948,4.30429 L 225.94082,194.76986 c 25.67601,-18.2812 37.29188,-50.59039 29.13409,-81.03559 C 244.28386,73.462215 202.88428,49.544708 162.617,60.353681 l -0.0898,0.0241 z"
       sodipodi:nodetypes="cccccssccccscc" />
  </g>
</svg>
